<?xml version="1.0" standalone="no"?><!DOCTYPE svg PUBLIC "-//W3C//DTD SVG 1.1//EN" "http://www.w3.org/Graphics/SVG/1.1/DTD/svg11.dtd"><svg t="1678096891014" class="icon" viewBox="0 0 1024 1024" version="1.1" xmlns="http://www.w3.org/2000/svg" p-id="2771" xmlns:xlink="http://www.w3.org/1999/xlink" width="200" height="200"><path d="M347.2384 196.5056l110.592 110.6944h108.2368l110.6944-110.6944c13.312-13.312 34.9184-13.312 48.3328 0 13.312 13.312 13.312 34.9184 0 48.3328l-62.464 62.3616h71.168c65.9456 0 119.5008 53.4528 119.5008 119.5008v273.1008c0 65.9456-53.4528 119.5008-119.5008 119.5008H290.0992c-65.9456 0-119.5008-53.4528-119.5008-119.5008V426.7008c0-65.9456 53.4528-119.5008 119.5008-119.5008h71.168l-62.3616-62.464c-13.312-13.312-13.312-34.9184 0-48.3328 13.312-13.312 34.9184-13.312 48.3328 0.1024z m386.6624 178.9952H290.0992c-26.4192 0-48.4352 20.0704-50.9952 46.2848l-0.2048 4.9152v273.1008c0 26.4192 20.0704 48.4352 46.2848 50.9952l4.9152 0.2048h443.6992c26.4192 0 48.4352-20.0704 50.9952-46.2848l0.2048-4.9152V426.7008c0.1024-28.2624-22.8352-51.2-51.0976-51.2z m-358.4 102.4c18.8416 0 34.0992 15.2576 34.0992 34.0992v68.3008c0 18.8416-15.2576 34.0992-34.0992 34.0992s-34.0992-15.2576-34.0992-34.0992V512c-0.1024-18.8416 15.2576-34.0992 34.0992-34.0992z m272.9984 0c18.8416 0 34.0992 15.2576 34.0992 34.0992v68.3008c0 18.8416-15.2576 34.0992-34.0992 34.0992S614.4 599.1424 614.4 580.3008V512c0-18.8416 15.2576-34.0992 34.0992-34.0992z" fill="#040000" p-id="2772"></path></svg>